<svg xmlns="http://www.w3.org/2000/svg" width="190.0" height="153.9" viewBox="0 0 190.0 153.9">
<rect width="100%" height="100%" fill="white"/>
<circle cx="45.000" cy="76.962" r="9.000" fill="#f8d7da" stroke="#b00020" stroke-width="0.5"/>
<circle cx="55.000" cy="59.641" r="9.000" fill="#f8d7da" stroke="#b00020" stroke-width="0.5"/>
<circle cx="65.000" cy="42.321" r="9.000" fill="#f8d7da" stroke="#b00020" stroke-width="0.5"/>
<circle cx="75.000" cy="25.000" r="9.000" fill="#f8d7da" stroke="#b00020" stroke-width="0.5"/>
<circle cx="55.000" cy="94.282" r="9.000" fill="#f8d7da" stroke="#b00020" stroke-width="0.5"/>
<circle cx="65.000" cy="76.962" r="9.000" fill="#f8d7da" stroke="#b00020" stroke-width="0.5"/>
<circle cx="75.000" cy="59.641" r="9.000" fill="#f8d7da" stroke="#b00020" stroke-width="0.5"/>
<circle cx="85.000" cy="42.321" r="9.000" fill="#f8d7da" stroke="#b00020" stroke-width="0.5"/>
<circle cx="95.000" cy="25.000" r="9.000" fill="#f8d7da" stroke="#b00020" stroke-width="0.5"/>
<circle cx="65.000" cy="111.603" r="9.000" fill="#f8d7da" stroke="#b00020" stroke-width="0.5"/>
<circle cx="75.000" cy="94.282" r="9.000" fill="#f8d7da" stroke="#b00020" stroke-width="0.5"/>
<circle cx="85.000" cy="76.962" r="9.000" fill="#f8d7da" stroke="#b00020" stroke-width="0.5"/>
<circle cx="95.000" cy="59.641" r="9.000" fill="#f8d7da" stroke="#b00020" stroke-width="0.5"/>
<circle cx="105.000" cy="42.321" r="9.000" fill="#f8d7da" stroke="#b00020" stroke-width="0.5"/>
<circle cx="115.000" cy="25.000" r="9.000" fill="#f8d7da" stroke="#b00020" stroke-width="0.5"/>
<circle cx="75.000" cy="128.923" r="9.000" fill="#f8d7da" stroke="#b00020" stroke-width="0.5"/>
<circle cx="85.000" cy="111.603" r="9.000" fill="#f8d7da" stroke="#b00020" stroke-width="0.5"/>
<circle cx="95.000" cy="94.282" r="9.000" fill="#f8d7da" stroke="#b00020" stroke-width="0.5"/>
<circle cx="115.000" cy="59.641" r="9.000" fill="#f8d7da" stroke="#b00020" stroke-width="0.5"/>
<circle cx="125.000" cy="42.321" r="9.000" fill="#f8d7da" stroke="#b00020" stroke-width="0.5"/>
<circle cx="135.000" cy="25.000" r="9.000" fill="#f8d7da" stroke="#b00020" stroke-width="0.5"/>
<circle cx="95.000" cy="128.923" r="9.000" fill="#f8d7da" stroke="#b00020" stroke-width="0.5"/>
<circle cx="105.000" cy="111.603" r="9.000" fill="#f8d7da" stroke="#b00020" stroke-width="0.5"/>
<circle cx="115.000" cy="94.282" r="9.000" fill="#f8d7da" stroke="#b00020" stroke-width="0.5"/>
<circle cx="125.000" cy="76.962" r="9.000" fill="#f8d7da" stroke="#b00020" stroke-width="0.5"/>
<circle cx="135.000" cy="59.641" r="9.000" fill="#f8d7da" stroke="#b00020" stroke-width="0.5"/>
<circle cx="145.000" cy="42.321" r="9.000" fill="#f8d7da" stroke="#b00020" stroke-width="0.5"/>
<circle cx="115.000" cy="128.923" r="9.000" fill="#f8d7da" stroke="#b00020" stroke-width="0.5"/>
<circle cx="125.000" cy="111.603" r="9.000" fill="#f8d7da" stroke="#b00020" stroke-width="0.5"/>
<circle cx="135.000" cy="94.282" r="9.000" fill="#f8d7da" stroke="#b00020" stroke-width="0.5"/>
<circle cx="145.000" cy="76.962" r="9.000" fill="#f8d7da" stroke="#b00020" stroke-width="0.5"/>
<circle cx="155.000" cy="59.641" r="9.000" fill="#f8d7da" stroke="#b00020" stroke-width="0.5"/>
<circle cx="135.000" cy="128.923" r="9.000" fill="#f8d7da" stroke="#b00020" stroke-width="0.5"/>
<circle cx="145.000" cy="111.603" r="9.000" fill="#f8d7da" stroke="#b00020" stroke-width="0.5"/>
<circle cx="155.000" cy="94.282" r="9.000" fill="#f8d7da" stroke="#b00020" stroke-width="0.5"/>
<circle cx="165.000" cy="76.962" r="9.000" fill="#f8d7da" stroke="#b00020" stroke-width="0.5"/>
<polyline points="105.000,76.962 85.000,65.415 75.000,71.188 65.000,65.415 55.000,71.188 50.000,68.301 25.000,53.868" fill="none" stroke="#0057b8" stroke-width="1.4"/>
<circle cx="105.000" cy="76.962" r="1.4" fill="#0057b8"/>
<circle cx="85.000" cy="65.415" r="1.4" fill="#0057b8"/>
<circle cx="75.000" cy="71.188" r="1.4" fill="#0057b8"/>
<circle cx="65.000" cy="65.415" r="1.4" fill="#0057b8"/>
<circle cx="55.000" cy="71.188" r="1.4" fill="#0057b8"/>
<circle cx="50.000" cy="68.301" r="1.4" fill="#0057b8"/>
<circle cx="25.000" cy="53.868" r="1.4" fill="#0057b8"/>
</svg>
